<svg viewBox="0 0 25 25" xmlns="http://www.w3.org/2000/svg" xmlns:xlink="http://www.w3.org/1999/xlink" >
                                        <path
                                            d="M17.8724934,19.3481945 C17.4662,18.9419012 17.4643401,18.2850294 17.8746847,17.8746847 L17.8746847,17.8746847 C18.2821883,17.4671811 18.9468084,17.4711073 19.3481945,17.8724934 L23.7796805,22.3039794 C24.1859739,22.7102728 24.1878338,23.3671445 23.7774892,23.7774892 L23.7774892,23.7774892 C23.3699856,24.1849928 22.7053655,24.1810666 22.3039794,23.7796805 L17.8724934,19.3481945 L17.8724934,19.3481945 Z">
                                        </path>
                                        <path
                                            d="M19.7391304,9.86956522 C19.7391304,4.41875486 15.3203756,0 9.86956522,0 C4.41875486,0 0,4.41875486 0,9.86956522 C0,15.3203756 4.41875486,19.7391304 9.86956522,19.7391304 C15.3203756,19.7391304 19.7391304,15.3203756 19.7391304,9.86956522 Z M2,9.86956522 C2,5.52332436 5.52332436,2 9.86956522,2 C14.2158061,2 17.7391304,5.52332436 17.7391304,9.86956522 C17.7391304,14.2158061 14.2158061,17.7391304 9.86956522,17.7391304 C5.52332436,17.7391304 2,14.2158061 2,9.86956522 Z">
                                        </path>
                                    </svg>