<?xml version="1.0" encoding="utf-8"?>
<!-- Generator: Adobe Illustrator 18.1.1, SVG Export Plug-In . SVG Version: 6.00 Build 0)  -->
<svg version="1.1" id="Layer_1" xmlns="http://www.w3.org/2000/svg" xmlns:xlink="http://www.w3.org/1999/xlink" x="0px" y="0px"
	 viewBox="485.4 804.1 200 27" enable-background="new 485.4 804.1 200 27" xml:space="preserve">
<g>
	<path d="M529,807.8c5.4,0,9.8,4.4,9.8,9.8c0,5.4-4.4,9.8-9.8,9.8c-5.4,0-9.8-4.4-9.8-9.8C519.2,812.2,523.6,807.8,529,807.8
		 M529,804.2c-7.4,0-13.4,6-13.4,13.4s6,13.4,13.4,13.4s13.4-6,13.4-13.4S536.4,804.2,529,804.2L529,804.2z"/>
	<path d="M578.8,805c-0.1,0-0.2,0.1-0.3,0.2l-13.8,18.7l-13.8-18.7c-0.1-0.1-0.2-0.2-0.3-0.2c-0.2,0-0.4,0.2-0.4,0.4v24.9h3.7v-14.7
		l10.6,14.2c0.1,0.1,0.1,0.1,0.2,0.1l0,0l0,0c0.1,0,0.2,0,0.2-0.1l10.6-14.2v14.7h3.7v-24.9C579.1,805.1,579,805,578.8,805z"/>
	<g>
		<path d="M593,821.2v9h-3.7V805"/>
		<path d="M601.5,805h-12.2v25.2h3.7v-9h8.5c4.5,0,8.1-3.6,8.1-8.1C609.6,808.6,606,805,601.5,805z M601.5,817.5H593v-8.9h8.5
			c2.4,0,4.4,2,4.4,4.4C605.9,815.5,603.9,817.5,601.5,817.5z"/>
	</g>
	<path d="M506.5,823.6c-1.8,2.3-4.6,3.8-7.7,3.8c-5.4,0-9.8-4.4-9.8-9.8c0-5.4,4.4-9.8,9.8-9.8c3.1,0,5.9,1.5,7.7,3.8l2.6-2.6
		c-2.5-3-6.2-4.9-10.3-4.9c-7.4,0-13.4,6-13.4,13.4c0,7.4,6,13.4,13.4,13.4c4.2,0,7.9-1.9,10.3-4.9L506.5,823.6z"/>
	<g>
		<path d="M651.6,830.7c-4.2,0-7.2-2.3-8.9-4.3l2.6-2.5c0.6,0.8,2.8,3.2,6.3,3.2c3.3,0,5.6-1.7,5.6-4c0-2-1.4-3.4-4.2-4.2l-3.1-0.7
			c-6.6-1.6-6.6-5.6-6.6-6.9c0-4.1,3.3-6.8,8.2-6.8c3.2,0,6,1.2,8.4,3.7l-2.6,2.5c-0.7-0.7-2.8-2.7-5.8-2.7c-2.9,0-4.5,1.2-4.5,3.2
			c0,0.6,0.2,2.7,3.2,3.3l2.8,0.6c5.1,1.2,7.8,3.9,7.8,7.8C660.8,827.4,656.8,830.7,651.6,830.7z"/>
	</g>
	<g>
		<path d="M676.2,830.7c-4.2,0-7.2-2.3-8.9-4.3l2.6-2.5c0.6,0.8,2.8,3.2,6.3,3.2c3.3,0,5.6-1.7,5.6-4c0-2-1.4-3.4-4.2-4.2l-3.1-0.7
			c-6.6-1.6-6.6-5.6-6.6-6.9c0-4.1,3.3-6.8,8.2-6.8c3.2,0,6,1.2,8.4,3.7l-2.6,2.5c-0.7-0.7-2.8-2.7-5.8-2.7c-2.9,0-4.5,1.2-4.5,3.2
			c0,0.6,0.2,2.7,3.2,3.3l2.8,0.6c5.1,1.2,7.8,3.9,7.8,7.8C685.4,827.4,681.4,830.7,676.2,830.7z"/>
	</g>
	<g>
		<rect x="522.7" y="815.8" transform="matrix(0.7071 -0.7071 0.7071 0.7071 -423.1939 613.5195)" width="12.6" height="3.7"/>
	</g>
	<path d="M624.8,805c-0.1-0.1-0.2-0.2-0.3-0.2s-0.3,0.1-0.3,0.2l-13.3,25.2h4.1l3.4-6.5h12.2l3.4,6.5h4.1L624.8,805z M620.3,820.1
		l4.2-7.9l4.2,7.9H620.3z"/>
</g>
</svg>
